<mxfile host="app.diagrams.net" agent="Mozilla/5.0 (Windows NT 10.0; Win64; x64) AppleWebKit/537.36 (KHTML, like Gecko) Chrome/138.0.0.0 Safari/537.36" version="28.0.7">
  <diagram name="Page-1" id="gamRS6MLA4fs2B-uqD5Q">
    <mxGraphModel grid="1" page="1" gridSize="10" guides="1" tooltips="1" connect="1" arrows="1" fold="1" pageScale="1" pageWidth="850" pageHeight="1100" math="0" shadow="0">
      <root>
        <mxCell id="0" />
        <mxCell id="1" parent="0" />
        <mxCell id="qD9gXsYjsShy9WRek7qx-5" style="edgeStyle=orthogonalEdgeStyle;rounded=0;orthogonalLoop=1;jettySize=auto;html=1;exitX=0.5;exitY=1;exitDx=0;exitDy=0;entryX=0.5;entryY=0;entryDx=0;entryDy=0;" edge="1" parent="1" source="sVo8eWBov2D_V9g_eI1e-1" target="qD9gXsYjsShy9WRek7qx-1">
          <mxGeometry relative="1" as="geometry" />
        </mxCell>
        <mxCell id="sVo8eWBov2D_V9g_eI1e-1" value="Inicio" style="rounded=1;whiteSpace=wrap;html=1;" vertex="1" parent="1">
          <mxGeometry x="151" y="80" width="80" height="30" as="geometry" />
        </mxCell>
        <mxCell id="sVo8eWBov2D_V9g_eI1e-14" value="&lt;font style=&quot;font-size: 20px;&quot;&gt;&lt;b&gt;Ordenación descendente&lt;/b&gt;&lt;/font&gt;" style="text;html=1;align=center;verticalAlign=middle;whiteSpace=wrap;rounded=0;" vertex="1" parent="1">
          <mxGeometry x="40" y="20" width="660" height="30" as="geometry" />
        </mxCell>
        <mxCell id="I5g4T-FfKX0s-sWPSXJS-8" style="edgeStyle=orthogonalEdgeStyle;rounded=0;orthogonalLoop=1;jettySize=auto;html=1;exitX=0.5;exitY=1;exitDx=0;exitDy=0;entryX=0.5;entryY=0;entryDx=0;entryDy=0;" edge="1" parent="1" source="qD9gXsYjsShy9WRek7qx-1" target="zkrZ9b4UMP6IybIUY_Qe-1">
          <mxGeometry relative="1" as="geometry">
            <mxPoint x="191" y="229" as="targetPoint" />
          </mxGeometry>
        </mxCell>
        <mxCell id="qD9gXsYjsShy9WRek7qx-1" value="Posicion = 1" style="rounded=0;whiteSpace=wrap;html=1;" vertex="1" parent="1">
          <mxGeometry x="151" y="162" width="80" height="40" as="geometry" />
        </mxCell>
        <mxCell id="fhB60b2QltupWCeUgBXA-5" value="Fin" style="rounded=1;whiteSpace=wrap;html=1;" vertex="1" parent="1">
          <mxGeometry x="330" y="499" width="80" height="30" as="geometry" />
        </mxCell>
        <mxCell id="zkrZ9b4UMP6IybIUY_Qe-5" style="edgeStyle=orthogonalEdgeStyle;rounded=0;orthogonalLoop=1;jettySize=auto;html=1;exitX=1;exitY=0.5;exitDx=0;exitDy=0;entryX=0.5;entryY=0;entryDx=0;entryDy=0;" edge="1" parent="1" source="zkrZ9b4UMP6IybIUY_Qe-1" target="zkrZ9b4UMP6IybIUY_Qe-2">
          <mxGeometry relative="1" as="geometry" />
        </mxCell>
        <mxCell id="zkrZ9b4UMP6IybIUY_Qe-8" style="edgeStyle=orthogonalEdgeStyle;rounded=0;orthogonalLoop=1;jettySize=auto;html=1;exitX=0.5;exitY=1;exitDx=0;exitDy=0;entryX=0.5;entryY=0;entryDx=0;entryDy=0;" edge="1" parent="1" source="zkrZ9b4UMP6IybIUY_Qe-1" target="zkrZ9b4UMP6IybIUY_Qe-7">
          <mxGeometry relative="1" as="geometry" />
        </mxCell>
        <mxCell id="zkrZ9b4UMP6IybIUY_Qe-1" value="A" style="rhombus;whiteSpace=wrap;html=1;" vertex="1" parent="1">
          <mxGeometry x="141" y="250" width="100" height="60" as="geometry" />
        </mxCell>
        <mxCell id="zkrZ9b4UMP6IybIUY_Qe-4" style="edgeStyle=orthogonalEdgeStyle;rounded=0;orthogonalLoop=1;jettySize=auto;html=1;exitX=0.5;exitY=1;exitDx=0;exitDy=0;entryX=0.5;entryY=0;entryDx=0;entryDy=0;" edge="1" parent="1" source="zkrZ9b4UMP6IybIUY_Qe-2" target="zkrZ9b4UMP6IybIUY_Qe-3">
          <mxGeometry relative="1" as="geometry" />
        </mxCell>
        <mxCell id="zkrZ9b4UMP6IybIUY_Qe-2" value="Mover a posición siguiente" style="rounded=0;whiteSpace=wrap;html=1;" vertex="1" parent="1">
          <mxGeometry x="310" y="320" width="120" height="40" as="geometry" />
        </mxCell>
        <mxCell id="zkrZ9b4UMP6IybIUY_Qe-11" style="edgeStyle=orthogonalEdgeStyle;rounded=0;orthogonalLoop=1;jettySize=auto;html=1;exitX=0.5;exitY=1;exitDx=0;exitDy=0;entryX=0.5;entryY=0;entryDx=0;entryDy=0;" edge="1" parent="1" source="zkrZ9b4UMP6IybIUY_Qe-3" target="fhB60b2QltupWCeUgBXA-5">
          <mxGeometry relative="1" as="geometry" />
        </mxCell>
        <mxCell id="zkrZ9b4UMP6IybIUY_Qe-13" style="edgeStyle=orthogonalEdgeStyle;rounded=0;orthogonalLoop=1;jettySize=auto;html=1;exitX=1;exitY=0.5;exitDx=0;exitDy=0;" edge="1" parent="1" source="zkrZ9b4UMP6IybIUY_Qe-3">
          <mxGeometry relative="1" as="geometry">
            <mxPoint x="190" y="220" as="targetPoint" />
            <Array as="points">
              <mxPoint x="470" y="422" />
              <mxPoint x="470" y="220" />
            </Array>
          </mxGeometry>
        </mxCell>
        <mxCell id="zkrZ9b4UMP6IybIUY_Qe-3" value="B" style="rhombus;whiteSpace=wrap;html=1;" vertex="1" parent="1">
          <mxGeometry x="320.75" y="392" width="100" height="60" as="geometry" />
        </mxCell>
        <mxCell id="zkrZ9b4UMP6IybIUY_Qe-6" value="No" style="text;html=1;align=center;verticalAlign=middle;resizable=0;points=[];autosize=1;strokeColor=none;fillColor=none;" vertex="1" parent="1">
          <mxGeometry x="236" y="253" width="40" height="30" as="geometry" />
        </mxCell>
        <mxCell id="zkrZ9b4UMP6IybIUY_Qe-15" style="edgeStyle=orthogonalEdgeStyle;rounded=0;orthogonalLoop=1;jettySize=auto;html=1;exitX=0.5;exitY=1;exitDx=0;exitDy=0;" edge="1" parent="1" source="zkrZ9b4UMP6IybIUY_Qe-7">
          <mxGeometry relative="1" as="geometry">
            <mxPoint x="191" y="130" as="targetPoint" />
            <Array as="points">
              <mxPoint x="191" y="420" />
              <mxPoint x="90" y="420" />
              <mxPoint x="90" y="130" />
              <mxPoint x="191" y="130" />
            </Array>
          </mxGeometry>
        </mxCell>
        <mxCell id="zkrZ9b4UMP6IybIUY_Qe-7" value="Cambio valores de posición" style="rounded=0;whiteSpace=wrap;html=1;" vertex="1" parent="1">
          <mxGeometry x="130.13" y="360" width="121.75" height="40" as="geometry" />
        </mxCell>
        <mxCell id="zkrZ9b4UMP6IybIUY_Qe-9" value="Si" style="text;html=1;align=center;verticalAlign=middle;resizable=0;points=[];autosize=1;strokeColor=none;fillColor=none;" vertex="1" parent="1">
          <mxGeometry x="158.75" y="310" width="30" height="30" as="geometry" />
        </mxCell>
        <mxCell id="zkrZ9b4UMP6IybIUY_Qe-12" value="Si" style="text;html=1;align=center;verticalAlign=middle;resizable=0;points=[];autosize=1;strokeColor=none;fillColor=none;" vertex="1" parent="1">
          <mxGeometry x="365" y="443" width="30" height="30" as="geometry" />
        </mxCell>
        <mxCell id="zkrZ9b4UMP6IybIUY_Qe-14" value="No" style="text;html=1;align=center;verticalAlign=middle;resizable=0;points=[];autosize=1;strokeColor=none;fillColor=none;" vertex="1" parent="1">
          <mxGeometry x="410" y="396" width="40" height="30" as="geometry" />
        </mxCell>
        <mxCell id="zkrZ9b4UMP6IybIUY_Qe-16" value="&lt;p style=&quot;language:es;margin-top:0pt;margin-bottom:0pt;margin-left:0in;&amp;lt;br/&amp;gt;text-align:left;direction:ltr;unicode-bidi:embed;mso-line-break-override:none;&amp;lt;br/&amp;gt;word-break:normal;punctuation-wrap:hanging&quot;&gt;&lt;span style=&quot;color: black;&quot;&gt;&lt;font&gt;A:¿Valor&amp;nbsp;próxima posición mayor que valor posición actual?&lt;/font&gt;&lt;/span&gt;&lt;/p&gt;&lt;font&gt;&lt;br&gt;&lt;/font&gt;&lt;p style=&quot;language:es;margin-top:0pt;margin-bottom:0pt;margin-left:0in;&amp;lt;br/&amp;gt;text-align:left;direction:ltr;unicode-bidi:embed;mso-line-break-override:none;&amp;lt;br/&amp;gt;word-break:normal;punctuation-wrap:hanging&quot;&gt;&lt;span style=&quot;color: black;&quot;&gt;&lt;font&gt;B:&amp;nbsp;¿Posición final?&lt;/font&gt;&lt;/span&gt;&lt;/p&gt;" style="text;whiteSpace=wrap;html=1;" vertex="1" parent="1">
          <mxGeometry x="300" y="120" width="350" height="60" as="geometry" />
        </mxCell>
      </root>
    </mxGraphModel>
  </diagram>
</mxfile>
